<?xml version="1.0" standalone="no"?><!DOCTYPE svg PUBLIC "-//W3C//DTD SVG 1.1//EN" "http://www.w3.org/Graphics/SVG/1.1/DTD/svg11.dtd"><svg t="1635852635454" class="icon" viewBox="0 0 2858 1024" version="1.1" xmlns="http://www.w3.org/2000/svg" p-id="8803" width="44.65625" height="16" xmlns:xlink="http://www.w3.org/1999/xlink"><defs><style type="text/css"></style></defs><path d="M2355.712 3.157333C2633.472 3.157333 2858.666667 230.016 2858.666667 509.909333c0 279.850667-225.194667 506.709333-502.954667 506.709334H435.626667V3.157333h1920.085333z m-1878.186667 971.221334h1878.186667c254.634667 0 461.056-207.957333 461.056-464.469334 0-253.994667-202.325333-460.373333-453.461333-464.469333l-7.594667-0.042667h-1878.186667v928.981334z" fill="#7CABF7" opacity=".5" p-id="8804"></path><path d="M419.413333 5.973333L74.965333 91.52A98.816 98.816 0 0 0 0 187.434667v425.429333c0 30.208 7.637333 60.16 23.04 90.026667a421.12 421.12 0 0 0 60.16 86.784 648.96 648.96 0 0 0 84.522667 79.530666c31.573333 25.045333 63.658667 47.36 96.426666 66.901334 32.768 19.626667 64.256 35.925333 94.677334 48.896 13.824 5.845333 32.213333 12.16 55.082666 18.858666 22.741333 6.656 46.933333 6.613333 69.674667-0.085333 22.528-6.656 40.533333-12.928 54.058667-18.773333a730.837333 730.837333 0 0 0 92.032-48.896 888.192 888.192 0 0 0 93.312-66.901334c30.72-25.045333 58.026667-51.626667 81.92-79.530666a426.24 426.24 0 0 0 57.941333-86.784c14.677333-29.866667 22.101333-59.818667 22.101333-90.026667V187.392c0-45.354667-30.890667-84.906667-74.922666-95.872L467.2 5.973333a98.816 98.816 0 0 0-47.786667 0z" fill="#7CABF7" p-id="8805"></path><path d="M647.210667 311.637333l60.8 59.392-231.594667 240.853334c-35.584 35.413333-92.245333 36.266667-128.853333 2.730666l-3.541334-3.498666-139.264-141.909334 60.245334-59.989333 139.221333 141.909333a8.874667 8.874667 0 0 0 11.221333 1.237334l1.536-1.28 230.229334-239.445334z" fill="#FFFFFF" p-id="8806"></path><path d="M1189.632 218.026667a30.805333 30.805333 0 0 1 42.069333-11.946667c14.08 7.893333 19.584 25.173333 13.226667 39.68l-1.322667 2.688-91.904 165.461333a30.805333 30.805333 0 0 1-42.112 11.989334 31.274667 31.274667 0 0 1-13.226666-39.68l1.365333-2.730667 91.904-165.461333zM1352.96 576.853333a30.848 30.848 0 0 1 39.850667-18.218666 31.232 31.232 0 0 1 19.029333 37.205333l-0.938667 2.858667-62.464 168.234666a30.848 30.848 0 0 1-39.808 18.261334 31.232 31.232 0 0 1-19.029333-37.248l0.896-2.858667 62.506667-168.234667zM1585.408 559.36a30.805333 30.805333 0 0 1 39.509333 13.013333l1.365334 2.688 74.837333 168.192c6.997333 15.701333 0 34.133333-15.573333 41.173334a30.805333 30.805333 0 0 1-39.509334-13.013334l-1.365333-2.645333-74.837333-168.234667c-6.997333-15.701333 0-34.133333 15.573333-41.173333z" fill="#7CABF7" p-id="8807"></path><path d="M1216.597333 202.069333c16.085333 0 29.312 12.373333 30.805334 28.16l0.128 2.986667 0.170666 537.941333c0 17.194667-13.824 31.146667-30.933333 31.146667a31.018667 31.018667 0 0 1-30.762667-28.16l-0.170666-2.986667-0.170667-537.898666c0-17.194667 13.866667-31.146667 30.933333-31.146667zM1496.192 364.373333c16.085333 0 29.269333 12.373333 30.762667 28.16l0.170666 2.986667v378.666667c0 17.237333-13.866667 31.146667-30.933333 31.146666a31.018667 31.018667 0 0 1-30.805333-28.16l-0.128-2.986666V395.562667c0-17.237333 13.824-31.146667 30.933333-31.146667z" fill="#7CABF7" p-id="8808" data-spm-anchor-id="a313x.7781069.0.i37" class="selected"></path><path d="M1630.848 206.293333H1361.493333c-36.053333 0-65.152 29.525333-65.152 65.834667v80.64c0 36.309333 29.098667 65.834667 65.152 65.834667h269.312c36.010667 0 65.152-29.525333 65.152-65.834667v-80.64c0-36.309333-29.141333-65.834667-65.152-65.834667zM1361.493333 269.824h269.312c1.109333 0 2.048 0.981333 2.048 2.304v80.64c0 1.28-0.938667 2.304-2.048 2.304H1361.493333c-1.109333 0-2.090667-0.981333-2.090666-2.304v-80.64c0-1.28 0.981333-2.304 2.090666-2.304zM1667.157333 464.384c17.066667 0 30.933333 13.952 30.933334 31.146667 0 16.213333-12.288 29.525333-27.946667 31.018666l-2.986667 0.128H1325.226667a31.061333 31.061333 0 0 1-30.933334-31.146666c0-16.213333 12.245333-29.482667 27.946667-31.018667l2.986667-0.128h341.930666zM2139.178667 193.365333a28.416 28.416 0 0 1 38.144 2.474667l1.962666 2.218667 30.72 39.125333c9.813333 12.458667 7.722667 30.549333-4.650666 40.405333a28.416 28.416 0 0 1-38.144-2.474666l-1.92-2.218667-30.762667-39.125333a28.885333 28.885333 0 0 1 4.650667-40.405334zM2301.141333 444.16h-226.986666c-30.08 0-52.096 27.690667-52.096 59.52v88.661333c0 31.872 22.016 59.52 52.096 59.52h226.986666c30.08 0 52.096-27.648 52.096-59.52v-88.661333c0-31.829333-22.016-59.52-52.096-59.52z m-226.986666 47.957333h226.986666c1.194667 0 4.522667 4.138667 4.522667 11.562667v88.661333c0 7.424-3.328 11.605333-4.522667 11.605334h-226.986666c-1.194667 0-4.522667-4.181333-4.522667-11.605334v-88.661333c0-7.424 3.328-11.562667 4.522667-11.562667z" fill="#7CABF7" p-id="8809"></path><path d="M2364.202667 239.488c15.786667 0 28.586667 12.885333 28.586666 28.757333 0 14.933333-11.349333 27.264-25.813333 28.629334l-2.773333 0.128h-341.930667a28.672 28.672 0 0 1-28.544-28.757334c0-14.933333 11.306667-27.221333 25.813333-28.586666l2.730667-0.170667h341.930667zM2364.202667 359.338667c15.786667 0 28.586667 12.885333 28.586666 28.757333 0 14.933333-11.349333 27.221333-25.813333 28.586667l-2.773333 0.170666h-341.930667a28.672 28.672 0 0 1-28.544-28.757333c0-14.933333 11.306667-27.221333 25.813333-28.629333l2.730667-0.128h341.930667zM1920.341333 205.866667a63.957333 63.957333 0 0 1 63.061334 74.496l-1.066667 5.12-30.848 123.306666 0.554667 0.682667a129.706667 129.706667 0 0 1 24.832 70.613333l0.128 5.888v85.589334c0 43.093333-33.834667 78.165333-76.245334 80.341333l-4.138666 0.085333h-35.157334v128.853334c0 16.213333-12.288 29.525333-27.946666 31.018666l-2.986667 0.128a31.018667 31.018667 0 0 1-30.762667-28.16l-0.170666-2.986666V205.866667h120.746666z m-58.88 383.829333h35.157334a18.389333 18.389333 0 0 0 18.346666-15.872l0.170667-2.261333V485.973333c0-13.738667-4.224-27.093333-12.074667-38.357333l-2.730666-3.669333-16.341334-20.352 38.4-153.386667a1.28 1.28 0 0 0 0-0.298667c0-0.682667-0.469333-1.28-1.194666-1.578666l-0.853334-0.128h-58.88v321.493333zM2187.818667 605.781333a28.629333 28.629333 0 0 1 28.501333 25.898667l0.170667 2.773333 0.512 149.248a28.672 28.672 0 0 1-28.458667 28.842667 28.629333 28.629333 0 0 1-28.501333-25.898667l-0.128-2.773333-0.554667-149.248a28.672 28.672 0 0 1 28.458667-28.842667z" fill="#7CABF7" p-id="8810" data-spm-anchor-id="a313x.7781069.0.i36" class="selected"></path><path d="M2086.528 254.762667a28.544 28.544 0 0 1 32.682667 20.266666l0.64 2.688 14.421333 77.482667a28.544 28.544 0 1 1-55.466667 13.312l-0.682666-2.730667-14.421334-77.44a28.757333 28.757333 0 0 1 22.826667-33.578666zM2295.765333 254.762667a28.544 28.544 0 0 0-32.725333 20.266666l-0.597333 2.688-14.421334 77.482667a28.544 28.544 0 1 0 55.466667 13.312l0.64-2.730667 14.421333-77.44a28.757333 28.757333 0 0 0-22.784-33.578666zM2320.938667 522.666667a23.893333 23.893333 0 0 1 23.808 23.978666 23.893333 23.893333 0 0 1-21.205334 23.850667l-2.56 0.128h-265.514666a23.893333 23.893333 0 0 1-23.808-23.978667 23.893333 23.893333 0 0 1 21.205333-23.808l2.56-0.128h265.514667zM2364.202667 684.074667c15.786667 0 28.586667 12.885333 28.586666 28.757333 0 14.933333-11.349333 27.221333-25.813333 28.629333l-2.773333 0.128h-341.930667a28.672 28.672 0 0 1-28.544-28.757333c0-14.933333 11.306667-27.221333 25.813333-28.586667l2.730667-0.170666h341.930667z" fill="#7CABF7" p-id="8811"></path></svg>